<svg width="159" height="163" viewBox="0 0 159 163" fill="none" xmlns="http://www.w3.org/2000/svg">
<g filter="url(#filter0_dddd_4543_12377)">
<path d="M147.647 77.637C147.647 116.096 116.386 147.274 77.8237 147.274C39.2611 147.274 8 116.096 8 77.637C8 39.1775 39.2611 8 77.8237 8C116.386 8 147.647 39.1775 147.647 77.637Z" fill="#FFC100"/>
</g>
<path fill-rule="evenodd" clip-rule="evenodd" d="M77.8237 146.571C115.997 146.571 146.942 115.708 146.942 77.637C146.942 39.566 115.997 8.7034 77.8237 8.7034C39.6507 8.7034 8.70529 39.566 8.70529 77.637C8.70529 115.708 39.6507 146.571 77.8237 146.571ZM77.8237 147.274C116.386 147.274 147.647 116.096 147.647 77.637C147.647 39.1775 116.386 8 77.8237 8C39.2611 8 8 39.1775 8 77.637C8 116.096 39.2611 147.274 77.8237 147.274Z" fill="#242E37"/>
<path d="M77.4711 28.3989C61.1157 28.3989 47.0216 38.0551 40.6077 51.963C52.0807 55.48 53.144 66.2452 54.9019 66.3827C72.8868 67.7895 70.0656 80.8025 80.2923 74.4719C90.519 68.1413 100.501 66.9822 101.098 65.3276C104.272 56.5351 110.753 53.1353 114.17 51.6113C107.682 37.8925 93.6884 28.3989 77.4711 28.3989Z" fill="white"/>
<path fill-rule="evenodd" clip-rule="evenodd" d="M40.6077 51.963C40.8369 52.0332 41.0619 52.1064 41.2829 52.1823C48.8757 54.7903 51.6684 60.6452 53.2521 63.9656C53.9295 65.3858 54.3858 66.3424 54.9019 66.3827C63.825 67.0807 67.6265 70.6357 70.441 73.2677C73.2992 75.9406 75.1396 77.6616 80.2923 74.4719C86.3162 70.7429 92.2552 68.8083 96.2413 67.5098C99.0224 66.6039 100.853 66.0076 101.098 65.3276C104.083 57.0584 109.994 53.5591 113.529 51.9041C113.753 51.7993 113.967 51.702 114.17 51.6113C114.07 51.399 113.968 51.1877 113.864 50.9775C107.249 37.601 93.4374 28.3989 77.4711 28.3989C61.3688 28.3989 47.4584 37.7585 40.911 51.3203C40.808 51.5335 40.7069 51.7477 40.6077 51.963ZM41.5865 51.5427C47.0489 53.441 50.1083 56.9715 52.0006 60.0747C52.8137 61.4081 53.4171 62.6735 53.8932 63.6721C53.9924 63.8801 54.0861 64.0766 54.175 64.2596C54.4399 64.8051 54.6486 65.203 54.8322 65.4657C54.9291 65.6044 54.9908 65.6637 55.017 65.6862C59.5729 66.0499 62.8485 67.1488 65.3561 68.5129C67.8228 69.8548 69.5173 71.4396 70.9119 72.7438L70.9888 72.8157C72.4356 74.1685 73.4664 75.0932 74.706 75.3929C75.8899 75.6792 77.4275 75.4174 79.9204 73.8742C85.1026 70.6663 90.2151 68.7734 94.082 67.4794C94.7842 67.2444 95.4391 67.0311 96.0441 66.834C97.1211 66.4832 98.0401 66.1839 98.7864 65.9054C99.3666 65.6888 99.8009 65.4995 100.099 65.3274C100.376 65.1668 100.436 65.0763 100.439 65.0778C100.439 65.0778 100.439 65.0781 100.439 65.0784C103.514 56.5706 109.609 52.9634 113.222 51.2706C106.718 38.1349 93.1516 29.1023 77.4711 29.1023C61.6826 29.1023 48.0373 38.2599 41.5865 51.5427Z" fill="white"/>
<path fill-rule="evenodd" clip-rule="evenodd" d="M141.466 66.9339C141.601 67.6991 141.089 68.4287 140.321 68.5636L136.848 69.1743C136.081 69.3093 135.35 68.7984 135.214 68.0332C135.079 67.268 135.591 66.5384 136.359 66.4035L139.831 65.7928C140.599 65.6578 141.33 66.1687 141.466 66.9339Z" fill="#242E37"/>
<path fill-rule="evenodd" clip-rule="evenodd" d="M138.538 56.0384C138.805 56.7685 138.427 57.5758 137.695 57.8415L131.067 60.2473C130.335 60.513 129.526 60.1366 129.259 59.4065C128.993 58.6764 129.37 57.8691 130.103 57.6034L136.73 55.1976C137.462 54.9318 138.272 55.3083 138.538 56.0384Z" fill="#242E37"/>
<path fill-rule="evenodd" clip-rule="evenodd" d="M133.453 45.9905C133.745 46.4952 133.571 47.1405 133.065 47.4318L123.904 52.7074C123.397 52.9987 122.75 52.8258 122.458 52.3212C122.166 51.8165 122.34 51.1712 122.846 50.8799L132.008 45.6044C132.514 45.313 133.161 45.4859 133.453 45.9905Z" fill="white"/>
<path fill-rule="evenodd" clip-rule="evenodd" d="M127.271 36.5747C127.771 37.1699 127.693 38.0572 127.097 38.5566L116.291 47.5994C115.694 48.0988 114.804 48.0212 114.304 47.426C113.803 46.8308 113.881 45.9435 114.478 45.4441L125.283 36.4013C125.88 35.9018 126.77 35.9795 127.271 36.5747Z" fill="#242E37"/>
<path fill-rule="evenodd" clip-rule="evenodd" d="M119.046 28.8677C119.494 29.2423 119.552 29.9078 119.177 30.3542L112.376 38.4367C112.001 38.8831 111.334 38.9414 110.886 38.5668C110.438 38.1922 110.38 37.5267 110.756 37.0803L117.556 28.9977C117.931 28.5513 118.599 28.4931 119.046 28.8677Z" fill="white"/>
<path fill-rule="evenodd" clip-rule="evenodd" d="M110.008 22.1281C110.683 22.5166 110.914 23.377 110.524 24.0499L103.471 36.2332C103.082 36.9061 102.219 37.1366 101.544 36.7481C100.87 36.3596 100.639 35.4992 101.028 34.8264L108.081 22.6431C108.471 21.9702 109.333 21.7397 110.008 22.1281Z" fill="#242E37"/>
<path fill-rule="evenodd" clip-rule="evenodd" d="M99.6365 17.6914C100.186 17.8907 100.469 18.4961 100.269 19.0437L96.6504 28.9585C96.4506 29.5061 95.8435 29.7884 95.2945 29.5891C94.7454 29.3898 94.4623 28.7843 94.6622 28.2367L98.2805 18.322C98.4803 17.7744 99.0874 17.4921 99.6365 17.6914Z" fill="white"/>
<path fill-rule="evenodd" clip-rule="evenodd" d="M88.832 14.4413C89.5992 14.5762 90.1115 15.3058 89.9762 16.071L87.5268 29.9253C87.3915 30.6905 86.6599 31.2014 85.8927 31.0665C85.1255 30.9316 84.6132 30.2019 84.7485 29.4368L87.1979 15.5824C87.3332 14.8172 88.0648 14.3063 88.832 14.4413Z" fill="#242E37"/>
<path fill-rule="evenodd" clip-rule="evenodd" d="M77.5646 13.8101C78.1489 13.8101 78.6226 14.2824 78.6226 14.8652V25.4162C78.6226 25.9989 78.1489 26.4713 77.5646 26.4713C76.9803 26.4713 76.5067 25.9989 76.5067 25.4162V14.8652C76.5067 14.2824 76.9803 13.8101 77.5646 13.8101Z" fill="white"/>
<path fill-rule="evenodd" clip-rule="evenodd" d="M66.2971 14.4416C67.0643 14.3066 67.7959 14.8175 67.9312 15.5827L70.3807 29.4371C70.516 30.2022 70.0037 30.9319 69.2365 31.0668C68.4693 31.2017 67.7376 30.6908 67.6024 29.9256L65.1529 16.0713C65.0176 15.3061 65.5299 14.5765 66.2971 14.4416Z" fill="#242E37"/>
<path fill-rule="evenodd" clip-rule="evenodd" d="M55.4927 17.6914C56.0417 17.4921 56.6488 17.7745 56.8487 18.322L60.467 28.2368C60.6668 28.7844 60.3837 29.3898 59.8347 29.5891C59.2857 29.7884 58.6786 29.5061 58.4787 28.9585L54.8604 19.0438C54.6605 18.4962 54.9436 17.8907 55.4927 17.6914Z" fill="white"/>
<path fill-rule="evenodd" clip-rule="evenodd" d="M45.1212 22.1282C45.7958 21.7397 46.6585 21.9703 47.0481 22.6431L54.101 34.8265C54.4905 35.4993 54.2593 36.3597 53.5847 36.7482C52.91 37.1367 52.0473 36.9061 51.6578 36.2333L44.6049 24.0499C44.2153 23.3771 44.4465 22.5167 45.1212 22.1282Z" fill="#242E37"/>
<path fill-rule="evenodd" clip-rule="evenodd" d="M36.0829 28.8677C36.5305 28.4931 37.1978 28.5513 37.5733 28.9977L44.3736 37.0803C44.7492 37.5267 44.6908 38.1922 44.2432 38.5668C43.7956 38.9413 43.1283 38.8831 42.7528 38.4367L35.9525 30.3541C35.5769 29.9077 35.6353 29.2422 36.0829 28.8677Z" fill="white"/>
<path fill-rule="evenodd" clip-rule="evenodd" d="M27.8584 36.5747C28.3592 35.9796 29.2489 35.9019 29.8457 36.4013L40.6514 45.4441C41.2482 45.9436 41.326 46.8309 40.8252 47.4261C40.3245 48.0213 39.4347 48.0989 38.838 47.5995L28.0323 38.5567C27.4355 38.0573 27.3577 37.1699 27.8584 36.5747Z" fill="#242E37"/>
<path fill-rule="evenodd" clip-rule="evenodd" d="M21.6764 45.9909C21.9685 45.4862 22.6155 45.3133 23.1215 45.6047L32.2835 50.8802C32.7895 51.1716 32.9629 51.8169 32.6707 52.3215C32.3786 52.8262 31.7316 52.9991 31.2256 52.7077L22.0636 47.4322C21.5576 47.1408 21.3842 46.4955 21.6764 45.9909Z" fill="white"/>
<path fill-rule="evenodd" clip-rule="evenodd" d="M16.591 56.0383C16.8575 55.3082 17.6669 54.9317 18.399 55.1975L25.0266 57.6032C25.7586 57.869 26.1361 58.6763 25.8696 59.4064C25.6032 60.1365 24.7937 60.5129 24.0617 60.2472L17.4341 57.8414C16.702 57.5757 16.3246 56.7684 16.591 56.0383Z" fill="#242E37"/>
<path fill-rule="evenodd" clip-rule="evenodd" d="M13.6637 66.9343C13.799 66.1691 14.5306 65.6582 15.2978 65.7931L18.7707 66.4038C19.5379 66.5388 20.0502 67.2684 19.9149 68.0336C19.7796 68.7987 19.048 69.3096 18.2808 69.1747L14.808 68.564C14.0407 68.4291 13.5285 67.6994 13.6637 66.9343Z" fill="#242E37"/>
<path d="M47.4963 84.671C46.55 85.1428 26.22 100.966 16.1108 109.29C18.4618 113.862 23.7683 121.248 23.869 120.896C24.5743 118.434 38.3275 107.883 40.0907 106.828C41.7191 105.854 59.8388 91.705 60.5441 91.0016C61.2494 90.2982 56.3124 85.7261 55.6071 85.0227C54.9018 84.3193 48.2015 84.3193 47.4963 84.671Z" fill="#242E37"/>
<path fill-rule="evenodd" clip-rule="evenodd" d="M47.6838 84.9752C47.6613 84.9821 47.653 84.9862 47.654 84.9857C47.6541 84.9856 47.6515 84.987 47.6455 84.9904C47.6397 84.9937 47.6321 84.9981 47.6224 85.0041C47.6029 85.016 47.5779 85.032 47.5467 85.0526C47.4845 85.0939 47.4032 85.1499 47.303 85.2208C47.1028 85.3624 46.8334 85.5588 46.5011 85.8052C45.837 86.2978 44.9273 86.986 43.8293 87.8255C41.6337 89.5043 38.6889 91.7858 35.4573 94.313C29.0867 99.295 21.6054 105.229 16.5552 109.381C17.7285 111.612 19.5537 114.457 21.1246 116.741C21.939 117.925 22.6815 118.952 23.225 119.66C23.4339 119.933 23.6107 120.154 23.7495 120.318C23.9153 120.036 24.151 119.726 24.4272 119.401C24.8855 118.862 25.4973 118.234 26.2095 117.554C27.6348 116.193 29.4828 114.604 31.359 113.063C35.103 109.988 39.0017 107.07 39.9093 106.527C40.2948 106.296 41.7113 105.246 43.6606 103.764C45.598 102.29 48.0366 100.409 50.4469 98.536C52.8572 96.6629 55.2384 94.7986 57.0608 93.3587C57.9721 92.6387 58.7432 92.0253 59.308 91.5702C59.8158 91.1611 60.14 90.8933 60.2583 90.7871C60.2551 90.7673 60.2477 90.7359 60.2311 90.6893C60.178 90.54 60.0615 90.3314 59.8798 90.0702C59.5202 89.5533 58.9614 88.909 58.3468 88.2522C57.4086 87.2497 56.3752 86.2543 55.7754 85.6767C55.5891 85.4972 55.4446 85.358 55.3578 85.2715C55.3581 85.2718 55.3358 85.2518 55.2657 85.2211C55.1999 85.1922 55.1101 85.1618 54.9947 85.1313C54.764 85.0703 54.4589 85.0163 54.0971 84.9706C53.3752 84.8792 52.4626 84.8247 51.5433 84.8029C50.625 84.7811 49.7084 84.7921 48.9804 84.83C48.6159 84.849 48.3033 84.8745 48.0633 84.9052C47.9432 84.9206 47.8456 84.9368 47.7711 84.953C47.734 84.961 47.7052 84.9686 47.6838 84.9752ZM60.2602 90.8148C60.26 90.8147 60.26 90.8128 60.2606 90.8093C60.2607 90.8133 60.2603 90.815 60.2602 90.8148ZM55.5494 84.5771C55.6553 84.6235 55.768 84.6859 55.8565 84.7741C55.9344 84.8518 56.0698 84.9822 56.2471 85.153C56.8418 85.7256 57.9082 86.7526 58.8624 87.7723C59.4821 88.4345 60.0695 89.109 60.4592 89.6692C60.6522 89.9465 60.8112 90.2161 60.8958 90.4542C60.97 90.6627 61.0407 91.004 60.7935 91.2504C60.6884 91.3553 60.3076 91.6691 59.7512 92.1174C59.1838 92.5745 58.4108 93.1895 57.4988 93.91C55.6745 95.3513 53.2918 97.2169 50.8804 99.0908C48.4691 100.965 46.0284 102.847 44.0883 104.323C42.1601 105.789 40.701 106.873 40.2722 107.13C39.4166 107.642 35.5571 110.527 31.8074 113.606C29.9368 115.143 28.1041 116.719 26.6972 118.062C25.9933 118.734 25.4011 119.343 24.9654 119.856C24.517 120.383 24.2732 120.766 24.2082 120.993C24.1862 121.07 24.1271 121.176 24.0003 121.23C23.8893 121.278 23.7903 121.258 23.746 121.245C23.6614 121.22 23.5973 121.17 23.5709 121.149C23.5017 121.094 23.4221 121.012 23.3407 120.921C23.172 120.733 22.9406 120.447 22.665 120.088C22.1117 119.367 21.3618 118.329 20.543 117.139C18.9073 114.761 16.9829 111.757 15.7971 109.451L15.6677 109.199L15.8864 109.019C20.9444 104.854 28.557 98.8154 35.0221 93.7595C38.2549 91.2313 41.2019 88.9482 43.4002 87.2673C44.4992 86.4269 45.412 85.7364 46.0803 85.2408C46.4142 84.9931 46.6885 84.7931 46.895 84.647C47.0903 84.5089 47.2498 84.4008 47.3386 84.3565C47.423 84.3145 47.5252 84.2865 47.6207 84.2657C47.7222 84.2437 47.8415 84.2244 47.9735 84.2075C48.2377 84.1737 48.5697 84.147 48.9436 84.1275C49.6923 84.0885 50.6271 84.0775 51.5601 84.0997C52.4922 84.1218 53.431 84.1772 54.1859 84.2727C54.5624 84.3204 54.902 84.3791 55.1754 84.4513C55.3121 84.4875 55.4393 84.5288 55.5494 84.5771Z" fill="#242E37"/>
<path d="M60.5441 86.0776C60.1915 86.4293 58.4283 86.4293 57.3703 86.4293C58.4283 86.781 60.8968 88.1879 64.0706 86.4293C65.6424 85.5584 65.4812 87.8361 64.7759 89.243C63.7179 91.3532 58.2038 99.0906 55.9597 101.553C52.4332 105.421 46.0856 114.214 45.733 125.82C45.4521 135.068 49.6121 140.24 52.0807 141.647C53.8439 142.651 56.6382 143.465 57.3703 143.757C59.1336 144.46 67.597 146.57 74.2973 146.57C80.9976 146.57 82.7608 146.57 88.0505 145.867C95.4656 144.881 101.064 142.622 101.804 142.35C108.504 139.888 112.03 138.13 115.204 136.019C118.626 133.744 124.726 128.634 125.431 127.93C127.378 125.988 131.426 121.6 134.6 117.379C135.078 116.742 138.361 111.283 139.889 108.587C124.608 96.1598 93.9044 71.3062 93.3401 71.3062C92.7759 71.3062 87.6978 73.8853 85.2293 75.1749L69.7129 77.9885C66.7742 79.0436 60.8968 81.2945 60.8968 81.8572C60.8968 82.5606 60.8968 85.7259 60.5441 86.0776Z" fill="#242E37"/>
<path fill-rule="evenodd" clip-rule="evenodd" d="M90.1541 73.0729C88.5093 73.877 86.6256 74.8427 85.393 75.4866L85.3454 75.5114L69.8049 78.3294C68.3388 78.8563 66.1567 79.675 64.3388 80.4322C63.4229 80.8136 62.6068 81.1764 62.0226 81.4765C61.7289 81.6274 61.5051 81.7567 61.3588 81.8599C61.3085 81.8955 61.2731 81.9239 61.2495 81.9451C61.2493 82.3526 61.2463 83.2525 61.205 84.1162C61.1828 84.5814 61.1492 85.0443 61.0974 85.4171C61.0716 85.6028 61.0402 85.7752 61.0005 85.9181C60.9664 86.0411 60.9091 86.2113 60.7936 86.3265C60.7018 86.418 60.5864 86.4782 60.4814 86.5202C60.3725 86.5639 60.2496 86.5978 60.1222 86.625C59.883 86.6761 59.5993 86.7096 59.3044 86.7321C60.5013 87.0439 62.0677 87.1369 63.8994 86.122C64.3292 85.8839 64.7622 85.7921 65.1204 85.9998C65.4649 86.1996 65.5904 86.5937 65.6279 86.9449C65.7051 87.6673 65.4642 88.6568 65.0914 89.4004C64.5478 90.4846 62.8875 92.9693 61.0999 95.4702C59.3086 97.976 57.3583 100.541 56.2207 101.789C52.7211 105.629 46.4346 114.344 46.0856 125.831C45.8078 134.976 49.9222 140.011 52.2557 141.341C53.1097 141.828 54.2254 142.274 55.2324 142.638C55.7339 142.82 56.2038 142.979 56.5965 143.112L56.622 143.121C56.998 143.248 57.3116 143.355 57.5014 143.43C58.3507 143.769 60.8803 144.468 64.0498 145.082C67.2129 145.696 70.9791 146.219 74.2974 146.219C80.9934 146.219 82.7379 146.219 88.0039 145.519C94.8821 144.604 100.187 142.588 101.469 142.1C101.561 142.065 101.632 142.038 101.682 142.02C108.368 139.563 111.866 137.816 115.009 135.727C116.705 134.599 119.074 132.761 121.114 131.112C123.159 129.459 124.845 128.018 125.182 127.682C127.12 125.748 131.156 121.372 134.318 117.168C134.543 116.869 135.471 115.367 136.549 113.574C137.553 111.904 138.672 110.01 139.436 108.672C131.796 102.459 120.434 93.2486 110.875 85.5602C106.046 81.677 101.679 78.1828 98.4837 75.6596C96.8858 74.3978 95.5824 73.3799 94.6615 72.6779C94.2006 72.3266 93.8379 72.0563 93.583 71.8746C93.4549 71.7833 93.3581 71.7172 93.2914 71.6752C93.2897 71.6741 93.2881 71.673 93.2864 71.672C93.2838 71.6727 93.2811 71.6735 93.2783 71.6743C93.2224 71.6899 93.1476 71.7146 93.0535 71.7494C92.8657 71.8188 92.6189 71.9213 92.3246 72.0511C91.737 72.3102 90.977 72.6706 90.1541 73.0729ZM61.2139 81.9824C61.2136 81.9824 61.215 81.9801 61.219 81.9756C61.2161 81.98 61.2141 81.9823 61.2139 81.9824ZM93.0882 70.9969C93.1613 70.9765 93.2536 70.9546 93.3402 70.9546C93.4105 70.9546 93.4657 70.9752 93.4827 70.9815C93.5085 70.9911 93.5318 71.0023 93.55 71.0117C93.5869 71.0306 93.6275 71.0548 93.6686 71.0808C93.7521 71.1335 93.8616 71.2086 93.9931 71.3023C94.2574 71.4907 94.6272 71.7665 95.0897 72.1191C96.0156 72.8248 97.3228 73.8457 98.9215 75.1081C102.119 77.6333 106.489 81.1291 111.317 85.0127C120.975 92.78 132.471 102.101 140.112 108.314L140.343 108.502L140.196 108.76C139.43 110.112 138.226 112.154 137.153 113.936C136.088 115.707 135.135 117.253 134.882 117.59C131.696 121.827 127.637 126.228 125.68 128.179C125.312 128.546 123.595 130.012 121.558 131.659C119.517 133.309 117.125 135.165 115.4 136.312C112.195 138.443 108.64 140.213 101.926 142.68C101.876 142.698 101.806 142.725 101.714 142.76C100.429 143.248 95.0588 145.29 88.0971 146.216C82.7843 146.922 81.0022 146.922 74.2991 146.922H74.2974C70.9154 146.922 67.0997 146.39 63.9152 145.773C60.7371 145.156 58.1534 144.448 57.2394 144.083C57.0674 144.015 56.7672 143.913 56.3695 143.778C55.9772 143.645 55.501 143.484 54.992 143.3C53.9781 142.933 52.815 142.47 51.9058 141.952C49.3022 140.468 45.0965 135.16 45.3806 125.809C45.7369 114.084 52.1456 105.214 55.6989 101.316C56.8054 100.102 58.7343 97.5677 60.5256 95.0618C62.3205 92.5509 63.9462 90.1118 64.4605 89.0858C64.793 88.4226 64.9854 87.5698 64.9266 87.0194C64.8961 86.7342 64.8112 86.6342 64.7659 86.6079C64.7343 86.5896 64.5981 86.5396 64.2419 86.7369C61.3152 88.3585 58.9222 87.4128 57.7025 86.9307C57.5308 86.8628 57.3823 86.8042 57.2589 86.7631L57.3704 86.0778C57.9019 86.0778 58.5943 86.0776 59.1967 86.0347C59.4984 86.0132 59.7663 85.9817 59.9744 85.9372C60.0784 85.915 60.1594 85.8912 60.2186 85.8675C60.2531 85.8537 60.2738 85.8424 60.2848 85.8356C60.2904 85.8229 60.3039 85.7914 60.3208 85.7305C60.3486 85.6302 60.375 85.4922 60.3988 85.3206C60.4462 84.979 60.4787 84.5407 60.5005 84.0827C60.5442 83.1688 60.5442 82.2092 60.5442 81.8574C60.5442 81.6824 60.6484 81.5552 60.7035 81.4952C60.7717 81.421 60.8592 81.3509 60.9515 81.2857C61.1381 81.154 61.3965 81.0069 61.6997 80.8512C62.3093 80.538 63.1462 80.1666 64.067 79.7831C65.9111 79.0151 68.1211 78.1864 69.5935 77.6577L69.6211 77.6478L85.1134 74.8386C86.3499 74.1931 88.2124 73.2388 89.8437 72.4413C90.6694 72.0376 91.4391 71.6725 92.0394 71.4078C92.339 71.2756 92.6009 71.1665 92.8084 71.0898C92.912 71.0516 93.0066 71.0197 93.0882 70.9969Z" fill="#242E37"/>
<path d="M73.9445 37.8945C73.9445 36.136 75.7077 34.3774 76.7656 34.3774V77.6368L69.7127 78.9455C69.7127 73.7681 69.5068 54.2191 69.3601 54.0728C67.5968 52.3143 60.8604 52.8883 60.1913 52.6659C59.1334 52.3142 57.7228 47.3904 57.0175 46.687C56.3122 45.9836 53.1384 46.687 52.0805 46.3353C51.4114 46.1128 49.9646 45.2802 49.9646 44.5768C49.9646 44.3649 51.3896 44.0516 52.4331 44.2251C54.549 44.5768 52.9923 43.5217 53.491 43.5217C54.9016 43.5217 55.6069 44.9285 56.6649 44.9285C57.3701 44.9285 65.397 46.0506 67.2442 44.5768C69.0074 43.17 72.1812 43.8734 72.8865 43.8734C73.5918 43.8734 73.9445 41.0598 73.9445 37.8945Z" fill="#242E37"/>
<path fill-rule="evenodd" clip-rule="evenodd" d="M75.7863 34.5299C76.115 34.3286 76.456 34.2017 76.7657 34.2017H76.942V77.783L69.5365 79.1571V78.9455C69.5365 76.358 69.485 70.1773 69.4152 64.6247C69.3803 61.8485 69.3408 59.23 69.3009 57.2965C69.2809 56.3296 69.2608 55.5348 69.2412 54.9774C69.2314 54.6985 69.2217 54.4804 69.2123 54.3304C69.2076 54.255 69.203 54.1991 69.1988 54.1621C69.1988 54.162 69.1989 54.1622 69.1988 54.1621C68.7898 53.7783 68.0964 53.5037 67.2395 53.3141C66.3635 53.1202 65.3463 53.0208 64.3562 52.969C63.4104 52.9195 62.4953 52.9136 61.7578 52.9089C61.7239 52.9086 61.6903 52.9084 61.6571 52.9082C61.2812 52.9057 60.9536 52.903 60.6988 52.8939C60.5714 52.8893 60.4598 52.8831 60.3681 52.8741C60.2799 52.8655 60.1975 52.8534 60.1356 52.8328C59.9559 52.7731 59.7921 52.6266 59.6445 52.4493C59.4935 52.2679 59.3429 52.0336 59.1943 51.768C58.8971 51.2366 58.5963 50.5583 58.3096 49.8764C58.1971 49.6088 58.087 49.3413 57.9799 49.0811C57.8122 48.6736 57.6517 48.2838 57.5007 47.939C57.3773 47.6575 57.2624 47.4109 57.1574 47.2141C57.0501 47.0131 56.9611 46.8795 56.8929 46.8114C56.8323 46.7511 56.7352 46.6964 56.5937 46.6523C56.4534 46.6085 56.2807 46.5785 56.081 46.5599C55.6809 46.5227 55.1957 46.5331 54.6889 46.555C54.5399 46.5615 54.3888 46.569 54.238 46.5764C53.881 46.5941 53.5252 46.6117 53.2012 46.6156C52.7448 46.6211 52.3206 46.6005 52.0248 46.5022C51.6713 46.3847 51.1263 46.112 50.6678 45.7786C50.4381 45.6115 50.2232 45.4242 50.064 45.2276C49.9072 45.0339 49.7883 44.8112 49.7883 44.5768C49.7883 44.5127 49.8154 44.4623 49.841 44.429C49.8666 44.3958 49.898 44.3698 49.9271 44.3495C49.9853 44.3091 50.0604 44.2741 50.1413 44.2436C50.3053 44.1818 50.5279 44.1258 50.7778 44.0832C51.277 43.9979 51.915 43.9608 52.4622 44.0517C52.9921 44.1398 53.2534 44.1314 53.3686 44.0957C53.3874 44.0899 53.3985 44.0845 53.4045 44.0808C53.4041 44.0754 53.4027 44.0665 53.3989 44.0532C53.3888 44.0176 53.3684 43.974 53.3394 43.9196C53.3327 43.907 53.325 43.893 53.317 43.8782C53.2951 43.8383 53.2703 43.7929 53.2525 43.7541C53.2397 43.726 53.2259 43.692 53.2177 43.6559C53.2098 43.6214 53.203 43.5684 53.2218 43.5114C53.2432 43.4463 53.2901 43.3999 53.3461 43.374C53.3954 43.3512 53.4475 43.3459 53.4911 43.3459C54.2586 43.3459 54.8288 43.731 55.314 44.0829C55.3497 44.1089 55.3849 44.1346 55.4196 44.1599C55.6254 44.3101 55.8143 44.448 56.007 44.5552C56.2289 44.6787 56.4412 44.7527 56.6649 44.7527C56.7637 44.7527 56.977 44.7715 57.2631 44.7988C57.3673 44.8088 57.4823 44.82 57.6071 44.8322C57.8321 44.8542 58.0889 44.8793 58.3721 44.9058C59.2515 44.9878 60.3752 45.0817 61.5337 45.1297C62.6931 45.1777 63.8822 45.1795 64.8936 45.0786C65.3992 45.0282 65.8563 44.9525 66.241 44.8457C66.6276 44.7384 66.9295 44.6028 67.1341 44.4396C68.0642 43.6975 69.3498 43.5218 70.4621 43.5218C71.0221 43.5217 71.547 43.5664 71.9736 43.6106C72.099 43.6236 72.2141 43.6363 72.3184 43.6478C72.5774 43.6764 72.7696 43.6976 72.8866 43.6976C72.9099 43.6976 72.9489 43.6875 73.0051 43.6269C73.0626 43.5649 73.1247 43.4635 73.1869 43.3161C73.311 43.0223 73.4185 42.588 73.5059 42.0432C73.6802 40.9569 73.7682 39.4724 73.7682 37.8945C73.7682 36.9597 74.2345 36.0411 74.8251 35.3614C75.1218 35.02 75.4548 34.7329 75.7863 34.5299ZM75.0916 35.5918C74.5362 36.2309 74.1208 37.0708 74.1208 37.8945C74.1208 39.482 74.0325 40.9869 73.8541 42.0988C73.7652 42.6531 73.6524 43.12 73.5119 43.4526C73.4419 43.6184 73.3607 43.7615 73.2639 43.8658C73.1659 43.9715 73.0396 44.0493 72.8866 44.0493C72.7487 44.0493 72.5248 44.0246 72.2534 43.9946C72.1538 43.9836 72.0477 43.9719 71.9372 43.9604C71.5152 43.9167 71.0042 43.8735 70.4621 43.8735C69.3704 43.8735 68.1875 44.0495 67.3544 44.7142C67.0972 44.9194 66.7441 45.0711 66.3355 45.1845C65.9249 45.2985 65.4463 45.3769 64.9287 45.4286C63.8934 45.5318 62.6854 45.5294 61.519 45.4811C60.3517 45.4328 59.2211 45.3382 58.3393 45.2559C58.0556 45.2295 57.7967 45.2042 57.5711 45.1821C57.4466 45.1699 57.3322 45.1588 57.2294 45.1489C56.9342 45.1207 56.7424 45.1044 56.6649 45.1044C56.3596 45.1044 56.087 45.0025 55.8351 44.8623C55.6219 44.7436 55.413 44.5911 55.2084 44.4416C55.1743 44.4167 55.1404 44.3919 55.1065 44.3674C54.6555 44.0402 54.2017 43.7418 53.6224 43.7021C53.631 43.7179 53.6405 43.7351 53.6508 43.7545C53.6811 43.8114 53.7172 43.8832 53.7382 43.9575C53.759 44.0307 53.7726 44.1318 53.726 44.2315C53.6772 44.3359 53.5821 44.3978 53.4734 44.4315C53.2697 44.4947 52.9321 44.4864 52.4042 44.3986C51.9078 44.3161 51.3116 44.3488 50.8373 44.4298C50.6005 44.4703 50.4017 44.5215 50.2659 44.5726C50.2101 44.5936 50.1704 44.6126 50.1447 44.6279C50.1598 44.7354 50.222 44.8629 50.3384 45.0066C50.4713 45.1709 50.6599 45.3375 50.8756 45.4944C51.3077 45.8087 51.8207 46.0636 52.1363 46.1685C52.3694 46.246 52.7387 46.2694 53.1969 46.2639C53.514 46.2601 53.8589 46.2431 54.2128 46.2255C54.3652 46.218 54.5194 46.2103 54.6736 46.2037C55.1807 46.1817 55.6873 46.1701 56.1138 46.2097C56.3273 46.2296 56.5265 46.2628 56.6989 46.3166C56.8702 46.37 57.0264 46.4473 57.1422 46.5627C57.2503 46.6705 57.3597 46.8446 57.4687 47.0489C57.58 47.2575 57.6992 47.5137 57.8238 47.7982C57.976 48.1457 58.1395 48.5428 58.3087 48.9539C58.4156 49.2135 58.5248 49.4787 58.6348 49.7404C58.9212 50.4214 59.2155 51.0839 59.5023 51.5967C59.6458 51.8532 59.7844 52.0667 59.9158 52.2247C60.0507 52.3866 60.1624 52.471 60.2471 52.4992C60.2688 52.5064 60.3174 52.5158 60.4024 52.5241C60.4837 52.532 60.5872 52.538 60.7114 52.5424C60.96 52.5514 61.2822 52.554 61.6595 52.5565C61.6931 52.5567 61.7272 52.5569 61.7617 52.5572C62.4982 52.5619 63.4205 52.5678 64.3747 52.6178C65.3728 52.67 66.4121 52.7707 67.3159 52.9707C68.2129 53.1692 69.0067 53.4717 69.4848 53.9485C69.5169 53.9804 69.5287 54.0174 69.5308 54.0241L69.5311 54.0248C69.5354 54.0379 69.5382 54.0504 69.54 54.0594C69.5437 54.0782 69.5467 54.1001 69.5493 54.1226C69.5545 54.1685 69.5594 54.2313 69.5643 54.3084C69.574 54.4634 69.5838 54.6853 69.5936 54.9651C69.6133 55.525 69.6334 56.3219 69.6534 57.2892C69.6934 59.2241 69.7329 61.8438 69.7678 64.6203C69.8358 70.0272 69.8864 76.0311 69.889 78.734L76.5894 77.4907V34.5711C76.4056 34.606 76.1947 34.6925 75.9708 34.8296C75.6741 35.0113 75.368 35.2737 75.0916 35.5918Z" fill="#242E37"/>
<path d="M79.9396 37.93C79.9396 36.1537 78.1763 34.3774 77.1184 34.3774V78.0734L84.1713 79.3953C84.1713 74.1657 84.3772 54.4194 84.524 54.2715C86.2872 52.4953 93.0236 53.0752 93.6927 52.8505C94.7507 52.4953 96.1612 47.5218 96.8665 46.8113C97.5718 46.1008 100.746 46.8113 101.804 46.456C102.473 46.2313 103.919 45.3903 103.919 44.6797C103.919 44.4657 102.494 44.1493 101.451 44.3245C99.335 44.6797 100.892 43.614 100.393 43.614C98.9824 43.614 98.2771 45.035 97.2192 45.035C96.5139 45.035 88.4871 46.1685 86.6398 44.6797C84.8766 43.2587 81.7028 43.9692 80.9975 43.9692C80.2922 43.9692 79.9396 41.1273 79.9396 37.93Z" fill="#242E37"/>
<path fill-rule="evenodd" clip-rule="evenodd" d="M78.0984 34.5334C77.7698 34.3301 77.4285 34.2017 77.1184 34.2017H76.942V78.2194L84.3476 79.6073V79.3954C84.3476 76.7817 84.399 70.5386 84.4689 64.93C84.5038 62.1258 84.5433 59.4808 84.5832 57.5277C84.6031 56.5511 84.6232 55.7482 84.6428 55.1852C84.6527 54.9035 84.6623 54.6831 84.6717 54.5316C84.6765 54.4554 84.681 54.3989 84.6852 54.3614C84.6853 54.3609 84.6853 54.3605 84.6854 54.36C85.0944 53.972 85.7879 53.695 86.6449 53.5034C87.5208 53.3076 88.5379 53.2072 89.5279 53.1549C90.4737 53.1049 91.3888 53.0989 92.1263 53.0941C92.1602 53.0939 92.1937 53.0937 92.2269 53.0935C92.6028 53.091 92.9305 53.0883 93.1853 53.079C93.3127 53.0744 93.4244 53.0681 93.5162 53.0591C93.6043 53.0504 93.6869 53.0381 93.7489 53.0173C93.9289 52.9568 94.0927 52.8088 94.2401 52.6299C94.391 52.4468 94.5416 52.2102 94.6901 51.942C94.9872 51.4054 95.288 50.7203 95.5747 50.0316C95.6872 49.7613 95.7973 49.4911 95.9044 49.2283C96.0721 48.8167 96.2326 48.4229 96.3836 48.0746C96.507 47.7902 96.622 47.541 96.727 47.3422C96.8343 47.1391 96.9234 47.0039 96.9918 46.935C97.0524 46.874 97.1495 46.8188 97.2908 46.7743C97.431 46.7302 97.6035 46.6999 97.8032 46.6811C98.2032 46.6435 98.6883 46.654 99.195 46.6762C99.344 46.6827 99.495 46.6902 99.6459 46.6978C100.003 46.7156 100.359 46.7334 100.683 46.7374C101.139 46.7429 101.564 46.7222 101.86 46.6227C102.213 46.504 102.758 46.2285 103.217 45.8917C103.447 45.7229 103.661 45.5338 103.821 45.3353C103.977 45.1396 104.096 44.9153 104.096 44.6798C104.096 44.6161 104.069 44.5658 104.044 44.5322C104.018 44.4988 103.987 44.4726 103.958 44.4521C103.899 44.4112 103.824 44.3759 103.743 44.3451C103.579 44.2826 103.356 44.2261 103.107 44.1829C102.607 44.0968 101.969 44.0592 101.422 44.1512C100.892 44.2401 100.631 44.2316 100.516 44.1957C100.496 44.1895 100.485 44.1839 100.479 44.1802C100.48 44.1746 100.481 44.1649 100.485 44.1499C100.495 44.1136 100.516 44.0694 100.545 44.0144C100.552 44.0016 100.559 43.9874 100.567 43.9725C100.589 43.9322 100.614 43.8865 100.632 43.8474C100.645 43.8191 100.658 43.7849 100.666 43.7488C100.674 43.7142 100.681 43.6614 100.662 43.6046C100.641 43.5398 100.595 43.493 100.539 43.4667C100.489 43.4435 100.437 43.4382 100.393 43.4382C99.6248 43.4382 99.0544 43.8275 98.5694 44.1828C98.5336 44.209 98.4985 44.235 98.4638 44.2605C98.2579 44.4123 98.069 44.5515 97.8764 44.6598C97.6545 44.7846 97.4424 44.8592 97.2191 44.8592C97.1202 44.8592 96.9068 44.8782 96.6208 44.9058C96.5166 44.9159 96.4017 44.9272 96.2769 44.9395C96.0519 44.9618 95.795 44.9871 95.5117 45.0138C94.6324 45.0967 93.5087 45.1915 92.3503 45.24C91.1909 45.2885 90.0018 45.2903 88.9906 45.1884C88.4851 45.1375 88.0281 45.061 87.6435 44.9532C87.257 44.8449 86.9552 44.7079 86.7506 44.543C85.8204 43.7934 84.5345 43.6158 83.4219 43.6158C82.8619 43.6158 82.3369 43.6609 81.9103 43.7056C81.7848 43.7187 81.6696 43.7316 81.5653 43.7432C81.3064 43.772 81.1144 43.7934 80.9975 43.7934C80.9749 43.7934 80.936 43.7836 80.8795 43.7221C80.8218 43.6594 80.7597 43.5567 80.6974 43.4076C80.5732 43.1105 80.4656 42.6715 80.3782 42.1211C80.2038 41.0236 80.1158 39.524 80.1158 37.93C80.1158 36.9869 79.6501 36.0597 79.0595 35.3732C78.7629 35.0284 78.4299 34.7384 78.0984 34.5334ZM78.7918 35.6022C79.3473 36.2479 79.7632 37.0969 79.7632 37.93C79.7632 39.5334 79.8515 41.0533 80.0298 42.1762C80.1188 42.7359 80.2316 43.2073 80.3719 43.5429C80.4418 43.7102 80.5229 43.8546 80.6195 43.9597C80.7173 44.0662 80.8437 44.1451 80.9975 44.1451C81.1354 44.1451 81.3594 44.1202 81.6309 44.0899C81.7305 44.0788 81.8366 44.0669 81.9471 44.0554C82.3689 44.0112 82.8799 43.9675 83.4219 43.9675C84.5133 43.9675 85.6959 44.1452 86.5289 44.8166C86.7861 45.0239 87.1393 45.1772 87.5481 45.2918C87.9588 45.4069 88.4375 45.4862 88.9552 45.5383C89.9906 45.6426 91.1987 45.6402 92.3651 45.5914C93.5324 45.5426 94.6631 45.4471 95.5449 45.364C95.8286 45.3372 96.0875 45.3117 96.3131 45.2894C96.4376 45.2771 96.552 45.2658 96.6548 45.2559C96.95 45.2273 97.1417 45.2109 97.2191 45.2109C97.5248 45.2109 97.7977 45.1079 98.0496 44.9662C98.2628 44.8463 98.4717 44.6922 98.6763 44.5413C98.7104 44.5161 98.7443 44.4911 98.7782 44.4663C99.2297 44.1354 99.6837 43.834 100.263 43.7943C100.254 43.8112 100.244 43.8297 100.233 43.8506C100.203 43.9081 100.167 43.9804 100.146 44.0551C100.125 44.1287 100.112 44.2299 100.158 44.3296C100.206 44.4343 100.301 44.497 100.41 44.5312C100.614 44.5951 100.952 44.5866 101.48 44.498C101.976 44.4147 102.572 44.4477 103.046 44.5295C103.283 44.5703 103.482 44.6221 103.618 44.6737C103.674 44.6951 103.714 44.7145 103.74 44.73C103.725 44.8398 103.662 44.9697 103.545 45.1157C103.412 45.2817 103.223 45.4501 103.008 45.6085C102.576 45.926 102.063 46.1834 101.747 46.2894C101.514 46.3676 101.145 46.3913 100.687 46.3857C100.37 46.3818 100.025 46.3646 99.6714 46.3469C99.5189 46.3393 99.3648 46.3316 99.2105 46.3248C98.7034 46.3026 98.1967 46.2909 97.7701 46.331C97.5565 46.351 97.3571 46.3846 97.1846 46.439C97.0132 46.493 96.8569 46.5711 96.7412 46.6876C96.6332 46.7963 96.524 46.972 96.415 47.1783C96.3038 47.3889 96.1846 47.6476 96.06 47.9349C95.9078 48.2859 95.7443 48.687 95.5751 49.1022C95.4682 49.3645 95.359 49.6323 95.249 49.8968C94.9626 50.5847 94.6683 51.254 94.3814 51.772C94.2378 52.0312 94.0992 52.247 93.9676 52.4066C93.8327 52.5704 93.7209 52.6556 93.6364 52.6839C93.6149 52.6912 93.5664 52.7007 93.4815 52.7091C93.4002 52.7171 93.2968 52.7231 93.1725 52.7276C92.924 52.7366 92.6018 52.7393 92.2246 52.7418C92.1909 52.742 92.1569 52.7422 92.1224 52.7424C91.3859 52.7472 90.4635 52.7532 89.5092 52.8037C88.5111 52.8564 87.4717 52.9582 86.5677 53.1602C85.6706 53.3608 84.8766 53.6664 84.3986 54.1479C84.3668 54.1799 84.3551 54.2169 84.353 54.2235L84.3528 54.2242C84.3485 54.2372 84.3458 54.2497 84.344 54.2588C84.3403 54.2776 84.3373 54.2997 84.3347 54.3223C84.3296 54.3685 84.3246 54.4319 84.3198 54.5098C84.3101 54.6663 84.3003 54.8904 84.2904 55.173C84.2707 55.7386 84.2506 56.5435 84.2306 57.5206C84.1907 59.475 84.1512 62.1211 84.1162 64.9256C84.0482 70.3883 83.9976 76.4542 83.995 79.1834L77.2947 77.9276V34.5713C77.4781 34.6065 77.6887 34.6938 77.9125 34.8322C78.2092 35.0158 78.5154 35.2808 78.7918 35.6022Z" fill="#242E37"/>
<path d="M39.738 101.201L41.5013 95.2221L29.1587 106.828L39.738 101.201Z" fill="#FFC100"/>
<path d="M49.6121 90.2983C49.9648 89.5949 52.4333 88.5398 52.4333 88.1881C52.4333 87.731 50.5042 86.7812 49.6121 86.7813C48.5542 86.7813 46.4383 89.2432 45.3804 89.9466C44.4525 90.5635 46.7909 95.2221 47.1436 95.2221C47.4962 95.2221 49.2967 90.9274 49.6121 90.2983Z" fill="#FFC100"/>
<path fill-rule="evenodd" clip-rule="evenodd" d="M46.4578 89.2855C46.095 89.6144 45.7553 89.9088 45.4783 90.093C45.4231 90.1296 45.3714 90.2099 45.3502 90.373C45.3294 90.534 45.3428 90.7465 45.3885 91.0001C45.4795 91.5058 45.6905 92.1327 45.9449 92.7488C46.1987 93.3634 46.4918 93.9583 46.7422 94.3977C46.8678 94.618 46.9804 94.7955 47.0701 94.9159C47.0974 94.9525 47.1213 94.982 47.1415 95.0049C47.1567 94.9863 47.1741 94.9633 47.1938 94.9353C47.2714 94.8252 47.368 94.6622 47.4787 94.4577C47.6992 94.0503 47.9653 93.498 48.2318 92.9224C48.5049 92.3328 48.7799 91.7153 49.0037 91.2126C49.2132 90.7424 49.3779 90.3726 49.4545 90.2197C49.5116 90.1059 49.605 89.9962 49.7126 89.8932C49.8218 89.7888 49.9541 89.6833 50.0983 89.579C50.3862 89.3706 50.734 89.1582 51.0643 88.9606C51.1209 88.9267 51.1769 88.8933 51.232 88.8605C51.5021 88.6995 51.751 88.5511 51.9436 88.4215C52.0598 88.3434 52.1482 88.2768 52.2059 88.2228C52.2285 88.2016 52.2433 88.1851 52.2525 88.1733C52.247 88.1599 52.2353 88.1373 52.2097 88.1046C52.1671 88.0501 52.1001 87.9854 52.0088 87.9135C51.8267 87.7702 51.5692 87.6148 51.2788 87.4707C50.9893 87.3271 50.6731 87.1977 50.3764 87.1046C50.077 87.0106 49.809 86.9572 49.6122 86.9572C49.4046 86.9572 49.1124 87.0832 48.7513 87.3233C48.3981 87.5582 48.0087 87.8813 47.6135 88.2317C47.3686 88.4487 47.1258 88.6724 46.8892 88.8902C46.7427 89.0252 46.5985 89.1579 46.4578 89.2855ZM52.2625 88.1584C52.2625 88.1584 52.2623 88.1588 52.2619 88.1596L52.2625 88.1584ZM48.5557 87.0307C48.9218 86.7872 49.2909 86.6055 49.6122 86.6055C49.8615 86.6055 50.1692 86.6708 50.4823 86.7691C50.7983 86.8683 51.1316 87.0049 51.4359 87.1559C51.7392 87.3064 52.0197 87.4741 52.2273 87.6374C52.3307 87.7188 52.4214 87.8033 52.4878 87.8883C52.5512 87.9694 52.6097 88.0727 52.6097 88.1881C52.6097 88.2596 52.5794 88.3189 52.5523 88.3595C52.5238 88.4022 52.4866 88.4423 52.4473 88.4791C52.3687 88.5528 52.2615 88.6319 52.1407 88.7131C51.9394 88.8486 51.68 89.0032 51.41 89.1641C51.3556 89.1966 51.3007 89.2293 51.2458 89.2621C50.9149 89.4601 50.5794 89.6654 50.3053 89.8637C50.1685 89.9627 50.0501 90.0578 49.9567 90.1471C49.8619 90.2378 49.801 90.315 49.7699 90.377C49.6949 90.5266 49.5363 90.883 49.3322 91.3414C49.1097 91.8415 48.8331 92.463 48.552 93.0699C48.2849 93.6467 48.015 94.2073 47.789 94.6248C47.6763 94.8329 47.572 95.0103 47.4823 95.1375C47.438 95.2005 47.3931 95.2572 47.3489 95.2999C47.3268 95.3213 47.3007 95.3434 47.2709 95.361C47.2425 95.3779 47.1983 95.398 47.1437 95.398C47.0868 95.398 47.0413 95.3758 47.0142 95.3595C46.9845 95.3418 46.9577 95.3194 46.9343 95.2974C46.8874 95.253 46.8377 95.1935 46.7871 95.1257C46.6851 94.9889 46.5644 94.7976 46.4356 94.5715C46.1774 94.1182 45.8778 93.5099 45.6189 92.8827C45.3605 92.2571 45.1389 91.6037 45.0414 91.0623C44.9928 90.7924 44.973 90.5398 45.0005 90.3279C45.0277 90.1182 45.1058 89.9179 45.2827 89.8003C45.5346 89.6328 45.8561 89.3557 46.2206 89.0252C46.3569 88.9016 46.4994 88.7705 46.6454 88.636C46.8844 88.416 47.1328 88.1873 47.3792 87.9688C47.7774 87.6158 48.1815 87.2795 48.5557 87.0307ZM41.8543 94.6486L39.8864 101.322L29.2418 106.984L29.0378 106.7L41.8543 94.6486ZM30.2385 106.055L39.5899 101.081L41.1484 95.7958L30.2385 106.055Z" fill="#242E37"/>
<path d="M101.512 134.613C98.4907 134.613 95.7834 134.124 93.3899 133.145C90.9964 132.167 89.0738 130.719 87.622 128.802C86.2095 126.884 85.464 124.575 85.3855 121.875H96.0973C96.2542 123.401 96.7839 124.575 97.6864 125.397C98.5888 126.18 99.7659 126.571 101.218 126.571C102.709 126.571 103.886 126.239 104.749 125.573C105.612 124.869 106.044 123.91 106.044 122.697C106.044 121.68 105.691 120.838 104.985 120.173C104.317 119.508 103.474 118.96 102.454 118.53C101.473 118.099 100.06 117.61 98.2161 117.062C95.5479 116.24 93.3703 115.418 91.6831 114.597C89.9959 113.775 88.5441 112.562 87.3277 110.957C86.1114 109.353 85.5032 107.259 85.5032 104.677C85.5032 100.842 86.8961 97.8481 89.682 95.6958C92.4678 93.5044 96.0973 92.4087 100.57 92.4087C105.122 92.4087 108.791 93.5044 111.576 95.6958C114.362 97.8481 115.853 100.861 116.049 104.735H105.161C105.083 103.405 104.592 102.368 103.69 101.624C102.787 100.842 101.63 100.45 100.217 100.45C99.0008 100.45 98.0199 100.783 97.2744 101.448C96.5289 102.074 96.1561 102.994 96.1561 104.207C96.1561 105.538 96.7839 106.575 98.0395 107.318C99.2951 108.062 101.257 108.864 103.925 109.725C106.593 110.625 108.751 111.486 110.399 112.307C112.086 113.129 113.538 114.323 114.755 115.888C115.971 117.453 116.579 119.469 116.579 121.934C116.579 124.282 115.971 126.415 114.755 128.332C113.577 130.25 111.851 131.776 109.575 132.911C107.3 134.045 104.612 134.613 101.512 134.613Z" fill="#FEC106"/>
<path d="M81.8592 92.9956V121.053C81.8592 125.397 80.6232 128.743 78.1512 131.091C75.7185 133.439 72.4226 134.613 68.2634 134.613C63.9081 134.613 60.416 133.38 57.7871 130.915C55.1582 128.449 53.8438 124.947 53.8438 120.408H63.8493C63.8493 122.13 64.2024 123.441 64.9087 124.341C65.6149 125.202 66.6351 125.632 67.9692 125.632C69.1855 125.632 70.1272 125.241 70.7942 124.458C71.4613 123.675 71.7948 122.541 71.7948 121.053V92.9956H81.8592Z" fill="#FEC106"/>
<path d="M89.6074 162.502L87.5891 151.056L93.7046 149.978C95.2852 149.699 96.5016 149.777 97.3537 150.211C98.2039 150.634 98.7059 151.282 98.8597 152.154C98.9616 152.732 98.8893 153.279 98.643 153.794C98.4057 154.297 98.0049 154.733 97.4406 155.102C96.8763 155.471 96.1471 155.735 95.2533 155.892L95.4246 154.952C96.3185 154.794 97.1091 154.784 97.7965 154.921C98.4947 155.057 99.0606 155.333 99.494 155.752C99.9364 156.157 100.216 156.692 100.333 157.357C100.508 158.349 100.231 159.196 99.5001 159.898C98.7806 160.598 97.6305 161.088 96.0499 161.366L89.6074 162.502ZM92.9252 159.135L95.2471 158.726C95.6722 158.651 95.9749 158.519 96.1551 158.33C96.3462 158.139 96.4158 157.896 96.3639 157.602C96.312 157.307 96.1636 157.103 95.9187 156.989C95.6847 156.873 95.3551 156.852 94.9299 156.927L92.3464 157.383L91.8966 154.832L93.9569 154.469C94.393 154.392 94.6966 154.265 94.8678 154.089C95.048 153.9 95.1141 153.669 95.0661 153.396C95.0161 153.113 94.875 152.919 94.6429 152.813C94.4217 152.706 94.0931 152.691 93.6571 152.768L91.8584 153.085L92.9252 159.135Z" fill="#FFC100"/>
<path d="M111.188 158.783C110.305 159.109 109.433 159.272 108.571 159.272C107.72 159.268 106.925 159.113 106.187 158.808C105.445 158.492 104.79 158.044 104.221 157.464C103.663 156.879 103.232 156.177 102.929 155.357C102.622 154.526 102.492 153.713 102.54 152.916C102.594 152.105 102.803 151.344 103.165 150.632C103.523 149.909 104.025 149.27 104.668 148.713C105.323 148.152 106.091 147.709 106.974 147.383C107.867 147.053 108.739 146.89 109.59 146.894C110.441 146.898 111.238 147.058 111.98 147.373C112.718 147.679 113.366 148.124 113.925 148.708C114.489 149.278 114.925 149.979 115.232 150.809C115.535 151.629 115.66 152.445 115.606 153.256C115.562 154.063 115.36 154.827 115.002 155.55C114.64 156.262 114.137 156.896 113.493 157.453C112.849 158.01 112.08 158.453 111.188 158.783ZM110.088 155.808C110.431 155.682 110.724 155.502 110.969 155.27C111.224 155.034 111.418 154.762 111.552 154.453C111.692 154.13 111.763 153.779 111.765 153.401C111.763 153.012 111.683 152.605 111.526 152.179C111.368 151.753 111.166 151.398 110.919 151.111C110.667 150.815 110.385 150.595 110.072 150.451C109.766 150.292 109.439 150.207 109.092 150.193C108.756 150.176 108.416 150.231 108.073 150.358C107.731 150.484 107.432 150.665 107.177 150.901C106.932 151.133 106.74 151.411 106.6 151.734C106.466 152.043 106.4 152.392 106.402 152.781C106.4 153.159 106.478 153.561 106.636 153.987C106.793 154.412 106.997 154.774 107.248 155.07C107.496 155.356 107.773 155.579 108.079 155.737C108.392 155.881 108.717 155.961 109.053 155.978C109.401 155.992 109.745 155.935 110.088 155.808Z" fill="#FFC100"/>
<path d="M122.474 153.861L115.88 144.29L119.106 142.067L123.977 149.135L128.297 146.158L130.021 148.66L122.474 153.861Z" fill="#FFC100"/>
<path d="M133.453 145.632L125.849 136.842L128.813 134.278L136.416 143.069L133.453 145.632Z" fill="#FFC100"/>
<path d="M143.365 135.806L131.231 132.342L133.877 129.058L144.029 132.098L142.456 134.05L137.398 124.687L139.815 121.688L145.782 132.807L143.365 135.806Z" fill="#FFC100"/>
<path d="M151.333 124.416L141.125 118.858L143 115.417L153.207 120.975L151.333 124.416Z" fill="#FFC100"/>
<path d="M154.603 118.305L145.161 109.834L146.37 106.177L159 104.999L157.729 108.846L147.281 109.346L147.761 107.896L155.853 114.522L154.603 118.305ZM153.628 114.801L151.26 112.969L152.938 107.893L155.93 107.832L153.628 114.801Z" fill="#FFC100"/>
<defs>
<filter id="filter0_dddd_4543_12377" x="0" y="0" width="155.647" height="155.274" filterUnits="userSpaceOnUse" color-interpolation-filters="sRGB">
<feFlood flood-opacity="0" result="BackgroundImageFix"/>
<feColorMatrix in="SourceAlpha" type="matrix" values="0 0 0 0 0 0 0 0 0 0 0 0 0 0 0 0 0 0 127 0" result="hardAlpha"/>
<feOffset dx="3" dy="3"/>
<feGaussianBlur stdDeviation="2.5"/>
<feComposite in2="hardAlpha" operator="out"/>
<feColorMatrix type="matrix" values="0 0 0 0 0 0 0 0 0 0 0 0 0 0 0 0 0 0 0.15 0"/>
<feBlend mode="normal" in2="BackgroundImageFix" result="effect1_dropShadow_4543_12377"/>
<feColorMatrix in="SourceAlpha" type="matrix" values="0 0 0 0 0 0 0 0 0 0 0 0 0 0 0 0 0 0 127 0" result="hardAlpha"/>
<feOffset dx="-3" dy="-3"/>
<feGaussianBlur stdDeviation="2.5"/>
<feComposite in2="hardAlpha" operator="out"/>
<feColorMatrix type="matrix" values="0 0 0 0 0 0 0 0 0 0 0 0 0 0 0 0 0 0 0.15 0"/>
<feBlend mode="normal" in2="effect1_dropShadow_4543_12377" result="effect2_dropShadow_4543_12377"/>
<feColorMatrix in="SourceAlpha" type="matrix" values="0 0 0 0 0 0 0 0 0 0 0 0 0 0 0 0 0 0 127 0" result="hardAlpha"/>
<feOffset dx="3" dy="-3"/>
<feGaussianBlur stdDeviation="2.5"/>
<feComposite in2="hardAlpha" operator="out"/>
<feColorMatrix type="matrix" values="0 0 0 0 0 0 0 0 0 0 0 0 0 0 0 0 0 0 0.15 0"/>
<feBlend mode="normal" in2="effect2_dropShadow_4543_12377" result="effect3_dropShadow_4543_12377"/>
<feColorMatrix in="SourceAlpha" type="matrix" values="0 0 0 0 0 0 0 0 0 0 0 0 0 0 0 0 0 0 127 0" result="hardAlpha"/>
<feOffset dx="-3" dy="3"/>
<feGaussianBlur stdDeviation="2.5"/>
<feComposite in2="hardAlpha" operator="out"/>
<feColorMatrix type="matrix" values="0 0 0 0 0 0 0 0 0 0 0 0 0 0 0 0 0 0 0.15 0"/>
<feBlend mode="normal" in2="effect3_dropShadow_4543_12377" result="effect4_dropShadow_4543_12377"/>
<feBlend mode="normal" in="SourceGraphic" in2="effect4_dropShadow_4543_12377" result="shape"/>
</filter>
</defs>
</svg>
